<?xml version="1.0" encoding="UTF-8"?>
<svg id="_レイヤー_1" data-name="レイヤー_1" xmlns="http://www.w3.org/2000/svg" width="100.221mm" height="100.221mm" version="1.1" viewBox="0 0 284.091 284.091">
  <!-- Generator: Adobe Illustrator 29.6.1, SVG Export Plug-In . SVG Version: 2.1.1 Build 9)  -->
  <defs>
    <style>
      .st0 {
        stroke: #bee2e7;
      }

      .st0, .st1 {
        fill: none;
        stroke-linecap: round;
        stroke-linejoin: round;
        stroke-width: 11.937px;
      }

      .st1 {
        stroke: #767777;
      }
    </style>
  </defs>
  <path class="st1" d="M107.577,11.577c1.042,3.126,23.478,41.911,26.329,62.294,2.704,19.329-4.63,75.674,39.141,74.461,12.468-.346,23.731-11.5,33.293-16.408,12.244-6.285,17.102-13.579,14.235-31.95-4.936-31.623-44.288-49.724-58.806-88.396"/>
  <path class="st1" d="M214.325,151.862c7.05,6.525,7.831,21.98,6.249,32.112-4.936,31.623-44.288,49.724-58.806,88.396"/>
  <path class="st1" d="M107.577,272.37c1.042-3.126,23.478-41.911,26.329-62.294,1.521-10.873.451-33.457,7.015-50.922"/>
  <path class="st0" d="M155.89,105.007c0,10.03,11.931,23.863,23.863,18.839"/>
</svg>