<?xml version="1.0" encoding="UTF-8"?>
<svg id="_レイヤー_1" data-name="レイヤー_1" xmlns="http://www.w3.org/2000/svg" width="100.221mm" height="100.221mm" version="1.1" viewBox="0 0 284.091 284.091">
  <!-- Generator: Adobe Illustrator 29.6.1, SVG Export Plug-In . SVG Version: 2.1.1 Build 9)  -->
  <defs>
    <style>
      .st0 {
        stroke: #bee2e7;
      }

      .st0, .st1 {
        fill: none;
        stroke-linecap: round;
        stroke-linejoin: round;
        stroke-width: 11.937px;
      }

      .st1 {
        stroke: #767777;
      }
    </style>
  </defs>
  <path class="st1" d="M214.179,19.943s-3.068,15.783,1.352,33.18c4.725,18.599,59.661,35.246,52.607,103.429-6.528,63.102-46.782,93.565-80.187,102.611-33.525,9.079-65.375,6.048-89.525-11.521-16.808-12.228-27.575-30.572-42.588-20.746"/>
  <path class="st1" d="M14.868,247.941c0-16.319,11.578-51.134,63.51-58.916,31.221-4.678,47.14-23.306,74.047-49.494,31.199-30.366,31.88-75.503,29.838-106.659"/>
  <path class="st0" d="M220.256,189.61c-4.142,19.635-17.586,32.365-37.481,35.319"/>
</svg>