<?xml version="1.0" encoding="UTF-8"?>
<svg id="_レイヤー_1" data-name="レイヤー_1" xmlns="http://www.w3.org/2000/svg" width="100.221mm" height="100.221mm" version="1.1" viewBox="0 0 284.091 284.091">
  <!-- Generator: Adobe Illustrator 29.6.1, SVG Export Plug-In . SVG Version: 2.1.1 Build 9)  -->
  <defs>
    <style>
      .st0 {
        fill: #bee2e7;
        stroke: #bee2e7;
        stroke-width: 7.958px;
      }

      .st0, .st1 {
        stroke-linecap: round;
        stroke-linejoin: round;
      }

      .st1 {
        fill: none;
        stroke: #767777;
        stroke-width: 11.937px;
      }
    </style>
  </defs>
  <g>
    <path class="st0" d="M53.598,175.068c23.048-6.374,47.555-15.965,63.141-45.144,21.357,20.608,37.662,23.198,52.673,22.35,13.339,20.832,22.337,29.388,37.33,32.609,16.412,3.525,44.421-3.851,32.294,17.415-4.53,7.943-42.012,19.16-42.012,19.16l3.707,29.216c-6.873.229-13.148,2.912-18.164.967,0,0,.675-22.102-11.836-38.481-7.149-9.359-51.255-.898-65.11-5.872-9.809-3.522-19.991-23.219-30.375-30.261-10.822-7.339-21.647-1.958-21.647-1.958Z"/>
    <path class="st1" d="M181.976,254.685s3.305-55.87-34.234-46.317c-33.42,8.504-65.448-5.035-72.497-31.342C31.268,183.901-.033,142.54,26.914,98.616c-.654-19.053,14.019-40.338,32.221-39.269,6.357-19.015,49.344-39.048,75.517-25.172,25.996-13.876,65.645-4.509,79.545,21.145,17.117,1.007,31.214,12.083,34.234,29.2,30.328,16.746,30.328,67.663,5.034,87.6-5.034,27.186-26.041,48.509-56.442,49.338,7.048,13.09,4.084,33.228,4.084,33.228"/>
  </g>
  <path class="st1" d="M178.841,151.209c-18.781,5.008-48.83-5.008-60.934-21.285.417,16.277-9.599,33.388-27.128,35.892"/>
  <path class="st1" d="M197.03,134.314c19.927-9.456,41.162,8.49,34.484,29.358"/>
  <path class="st1" d="M203.494,70.602c9.182,15.442-1.669,39.649-25.459,34.223"/>
  <path class="st1" d="M69.078,73.164c2.504,20.868,32.136,35.892,58.429,25.876"/>
  <path class="st1" d="M134.353,75.226c17.742,2.825,29.401,26.653,10.01,41.463"/>
</svg>