<?xml version="1.0" encoding="UTF-8"?>
<svg id="_レイヤー_1" data-name="レイヤー_1" xmlns="http://www.w3.org/2000/svg" width="100.221mm" height="100.221mm" version="1.1" viewBox="0 0 284.091 284.091">
  <!-- Generator: Adobe Illustrator 29.6.1, SVG Export Plug-In . SVG Version: 2.1.1 Build 9)  -->
  <defs>
    <style>
      .st0 {
        fill: #b9dadf;
      }

      .st0, .st1 {
        stroke: #767777;
        stroke-linecap: round;
        stroke-linejoin: round;
        stroke-width: 11.812px;
      }

      .st1 {
        fill: none;
      }
    </style>
  </defs>
  <circle class="st1" cx="54.024" cy="78.384" r="24.76" transform="translate(-34.769 112.712) rotate(-76.562)"/>
  <path class="st1" d="M57.505,130.973l36.055-38.03c3.058-3.226,7.256-5.129,11.697-5.304l41.846-1.65,29.936-28.379c3.263-3.094,8.345-3.195,11.729-.234l3.472,3.038c3.392,2.968,3.957,8.035,1.301,11.677l-25.471,34.931c-2.331,3.197-5.689,5.495-9.512,6.512l-32.196,8.558,21.853,24.895,42.916-21.361c4.471-2.226,9.728-2.221,14.196.013l52.673,26.337c4.859,2.43,6.905,8.284,4.618,13.211l-2.555,5.503c-3.251,7.002-11.549,10.062-18.567,6.846l-39.456-18.078-45.286,42.712c-5.395,5.088-13.049,7.001-20.203,5.05l-13.134-3.582c-4.665-1.272-8.799-4.009-11.792-7.806l-29.155-36.986,10.035,62.386c1.054,6.553-3.266,12.764-9.776,14.056h0c-5.917,1.174-11.686-2.602-12.976-8.495l-17.136-78.262c-1.38-6.302.451-12.878,4.89-17.559Z"/>
  <path class="st0" d="M179.903,201.68l22.188-19.294,37.561,48.917c2.225,2.898,1.889,7.01-.776,9.509l-2.015,1.889c-4.849,4.546-12.442,4.386-17.096-.36l-39.863-40.661Z"/>
</svg>